<svg version="1.1" id="Layer_1" xmlns="http://www.w3.org/2000/svg" xmlns:xlink="http://www.w3.org/1999/xlink" x="0px" y="0px"
	 viewBox="0 0 117 113" style="enable-background:new 0 0 117 113;" xml:space="preserve">
<style type="text/css">
	.st0{fill:#FF9900;}
</style>
<g transform="translate(0.000000,113.000000) scale(0.100000,-0.100000)">
	<path class="st0" d="M145,961v-50h203h203l1,50l1,50H349H145V961z M525,966c0-14-6-25-12-26c-76-3-331,1-338,6c-7,4-6,13,0,26
		c10,18,23,19,180,19h170V966z"/>
	<path class="st0" d="M903,761l3-250H770H633l4-47l3-48l183-3l182-2v300v300h-52h-53L903,761z M977,739c2-139,2-263,0-275
		c-3-23-5-23-161-23H658l5,25c4,25,5,25,116,25c74,0,118,4,129,13c19,14,24,81,26,335c1,144,2,152,21,152S974,982,977,739z"/>
	<path class="st0" d="M145,599V411h50h49l3,136l3,136l127-1l127-2l-1,50v50l-179,3l-179,3V599z M480,739c-2-22-6-23-93-24
		c-50-1-96-5-102-9s-18-1-27,7c-9,7-14,8-10,2c3-6-2-20-12-30c-14-16-17-35-16-109c1-50,0-100-3-112c-6-31-38-30-44,1
		c-4,19-3,195,1,279c1,15,15,17,154,17C481,761,482,761,480,739z"/>
</g>
<path class="st0" d="M7.7,84.6c0,1,10,1.2,50.5,1.1c28.5,0,50.7-0.5,51-1c0.4-0.5-20.7-1-50.5-1.1C17.7,83.4,7.7,83.6,7.7,84.6z"/>
</svg>
