<?xml version="1.0" encoding="utf-8"?>
<!-- Generator: Adobe Illustrator 25.3.1, SVG Export Plug-In . SVG Version: 6.00 Build 0)  -->
<svg version="1.1" id="OBJECTS" xmlns="http://www.w3.org/2000/svg" xmlns:xlink="http://www.w3.org/1999/xlink" x="0px" y="0px"
	 viewBox="0 0 500 500" style="enable-background:new 0 0 500 500;" xml:space="preserve">
<style type="text/css">
	.st0{fill:url(#SVGID_1_);}
	.st1{fill:url(#SVGID_2_);}
	.st2{fill:url(#SVGID_3_);}
	.st3{fill:url(#SVGID_4_);}
	.st4{fill:url(#SVGID_5_);}
	.st5{fill:url(#SVGID_6_);}
	.st6{fill:#FFFFFF;}
	.st7{fill:url(#SVGID_7_);}
	.st8{fill:url(#SVGID_8_);}
	.st9{fill:url(#SVGID_9_);}
	.st10{fill:url(#SVGID_10_);}
	.st11{fill:url(#SVGID_11_);}
	.st12{fill:url(#SVGID_12_);}
	.st13{fill:url(#SVGID_13_);}
	.st14{fill:url(#SVGID_14_);}
	.st15{fill:#FAFAFA;}
	.st16{fill:none;stroke:#000000;stroke-width:0.8244;stroke-linecap:round;stroke-linejoin:round;stroke-miterlimit:10;}
	.st17{fill:#262626;}
	.st18{font-family:'Neris-SemiBold';}
	.st19{font-size:8.9292px;}
	.st20{font-size:4.7497px;}
	.st21{fill:#B8BAB9;}
	.st22{fill:none;stroke:#B8BAB9;stroke-width:0.8244;stroke-miterlimit:10;}
	.st23{font-size:6.9354px;}
	.st24{font-size:6.1086px;}
	.st25{fill:#A4A4A4;}
	.st26{font-size:5.1891px;}
	.st27{fill:none;stroke:#B8BAB9;stroke-width:0.8244;stroke-linecap:round;stroke-linejoin:round;stroke-miterlimit:10;}
	.st28{fill:none;stroke:#262626;stroke-width:0.8244;stroke-linecap:round;stroke-linejoin:round;stroke-miterlimit:10;}
	.st29{fill:none;stroke:#262626;stroke-width:0.8244;stroke-miterlimit:10;}
	.st30{fill:none;stroke:#E2E2E2;stroke-width:0.7587;stroke-miterlimit:10;}
	.st31{fill:none;stroke:#262626;stroke-width:0.5;stroke-linecap:round;stroke-linejoin:round;stroke-miterlimit:10;}
	.st32{fill:#BABABA;}
	.st33{fill:none;stroke:#959595;stroke-width:0.3794;stroke-linecap:round;stroke-linejoin:round;stroke-miterlimit:10;}
	.st34{fill:#959595;}
	.st35{fill:#F7F7F7;}
	.st36{font-size:5.4034px;}
</style>
<g>
	<g>
		<linearGradient id="SVGID_1_" gradientUnits="userSpaceOnUse" x1="146.1115" y1="89.5906" x2="146.1115" y2="105.7553">
			<stop  offset="0" style="stop-color:#856B4F"/>
			<stop  offset="0.0137" style="stop-color:#8D7458"/>
			<stop  offset="0.0775" style="stop-color:#AF987F"/>
			<stop  offset="0.1439" style="stop-color:#CBB69E"/>
			<stop  offset="0.2125" style="stop-color:#E1CDB7"/>
			<stop  offset="0.2844" style="stop-color:#F0DEC8"/>
			<stop  offset="0.3615" style="stop-color:#F9E8D3"/>
			<stop  offset="0.4531" style="stop-color:#FCEBD6"/>
			<stop  offset="0.549" style="stop-color:#F9E8D3"/>
			<stop  offset="0.6304" style="stop-color:#EFDDC9"/>
			<stop  offset="0.7065" style="stop-color:#DDCCB8"/>
			<stop  offset="0.7793" style="stop-color:#C5B3A0"/>
			<stop  offset="0.85" style="stop-color:#A69381"/>
			<stop  offset="0.9188" style="stop-color:#806C5B"/>
			<stop  offset="0.9851" style="stop-color:#543E2F"/>
			<stop  offset="1" style="stop-color:#493324"/>
		</linearGradient>
		<path class="st0" d="M146.45,105.49h-0.67c-0.9,0-1.63-0.73-1.63-1.63V91.22c0-0.9,0.73-1.63,1.63-1.63h0.67
			c0.9,0,1.63,0.73,1.63,1.63v12.65C148.07,104.76,147.34,105.49,146.45,105.49z"/>
		<linearGradient id="SVGID_2_" gradientUnits="userSpaceOnUse" x1="146.1115" y1="123.232" x2="146.1115" y2="151.5683">
			<stop  offset="0" style="stop-color:#856B4F"/>
			<stop  offset="0.0137" style="stop-color:#8D7458"/>
			<stop  offset="0.0775" style="stop-color:#AF987F"/>
			<stop  offset="0.1439" style="stop-color:#CBB69E"/>
			<stop  offset="0.2125" style="stop-color:#E1CDB7"/>
			<stop  offset="0.2844" style="stop-color:#F0DEC8"/>
			<stop  offset="0.3615" style="stop-color:#F9E8D3"/>
			<stop  offset="0.4531" style="stop-color:#FCEBD6"/>
			<stop  offset="0.549" style="stop-color:#F9E8D3"/>
			<stop  offset="0.6304" style="stop-color:#EFDDC9"/>
			<stop  offset="0.7065" style="stop-color:#DDCCB8"/>
			<stop  offset="0.7793" style="stop-color:#C5B3A0"/>
			<stop  offset="0.85" style="stop-color:#A69381"/>
			<stop  offset="0.9188" style="stop-color:#806C5B"/>
			<stop  offset="0.9851" style="stop-color:#543E2F"/>
			<stop  offset="1" style="stop-color:#493324"/>
		</linearGradient>
		<path class="st1" d="M146.45,151.49h-0.67c-0.9,0-1.63-0.73-1.63-1.63v-25.13c0-0.9,0.73-1.63,1.63-1.63h0.67
			c0.9,0,1.63,0.73,1.63,1.63v25.13C148.07,150.76,147.34,151.49,146.45,151.49z"/>
		<linearGradient id="SVGID_3_" gradientUnits="userSpaceOnUse" x1="332.5647" y1="123.002" x2="332.5647" y2="152.105">
			<stop  offset="0" style="stop-color:#856B4F"/>
			<stop  offset="0.0137" style="stop-color:#8D7458"/>
			<stop  offset="0.0775" style="stop-color:#AF987F"/>
			<stop  offset="0.1439" style="stop-color:#CBB69E"/>
			<stop  offset="0.2125" style="stop-color:#E1CDB7"/>
			<stop  offset="0.2844" style="stop-color:#F0DEC8"/>
			<stop  offset="0.3615" style="stop-color:#F9E8D3"/>
			<stop  offset="0.4531" style="stop-color:#FCEBD6"/>
			<stop  offset="0.549" style="stop-color:#F9E8D3"/>
			<stop  offset="0.6304" style="stop-color:#EFDDC9"/>
			<stop  offset="0.7065" style="stop-color:#DDCCB8"/>
			<stop  offset="0.7793" style="stop-color:#C5B3A0"/>
			<stop  offset="0.85" style="stop-color:#A69381"/>
			<stop  offset="0.9188" style="stop-color:#806C5B"/>
			<stop  offset="0.9851" style="stop-color:#543E2F"/>
			<stop  offset="1" style="stop-color:#493324"/>
		</linearGradient>
		<path class="st2" d="M332.9,151.49h-0.67c-0.9,0-1.63-0.73-1.63-1.63v-25.13c0-0.9,0.73-1.63,1.63-1.63h0.67
			c0.9,0,1.63,0.73,1.63,1.63v25.13C334.53,150.76,333.8,151.49,332.9,151.49z"/>
		<linearGradient id="SVGID_4_" gradientUnits="userSpaceOnUse" x1="146.1115" y1="158.2533" x2="146.1115" y2="186.8354">
			<stop  offset="0" style="stop-color:#856B4F"/>
			<stop  offset="0.0137" style="stop-color:#8D7458"/>
			<stop  offset="0.0775" style="stop-color:#AF987F"/>
			<stop  offset="0.1439" style="stop-color:#CBB69E"/>
			<stop  offset="0.2125" style="stop-color:#E1CDB7"/>
			<stop  offset="0.2844" style="stop-color:#F0DEC8"/>
			<stop  offset="0.3615" style="stop-color:#F9E8D3"/>
			<stop  offset="0.4531" style="stop-color:#FCEBD6"/>
			<stop  offset="0.549" style="stop-color:#F9E8D3"/>
			<stop  offset="0.6304" style="stop-color:#EFDDC9"/>
			<stop  offset="0.7065" style="stop-color:#DDCCB8"/>
			<stop  offset="0.7793" style="stop-color:#C5B3A0"/>
			<stop  offset="0.85" style="stop-color:#A69381"/>
			<stop  offset="0.9188" style="stop-color:#806C5B"/>
			<stop  offset="0.9851" style="stop-color:#543E2F"/>
			<stop  offset="1" style="stop-color:#493324"/>
		</linearGradient>
		<path class="st3" d="M146.45,186.84h-0.67c-0.9,0-1.63-0.73-1.63-1.63v-25.13c0-0.9,0.73-1.63,1.63-1.63h0.67
			c0.9,0,1.63,0.73,1.63,1.63v25.13C148.07,186.11,147.34,186.84,146.45,186.84z"/>
		<linearGradient id="SVGID_5_" gradientUnits="userSpaceOnUse" x1="145.7079" y1="234.2137" x2="332.5635" y2="234.2137">
			<stop  offset="0" style="stop-color:#856B4F"/>
			<stop  offset="0.0137" style="stop-color:#8D7458"/>
			<stop  offset="0.0775" style="stop-color:#AF987F"/>
			<stop  offset="0.1439" style="stop-color:#CBB69E"/>
			<stop  offset="0.2125" style="stop-color:#E1CDB7"/>
			<stop  offset="0.2844" style="stop-color:#F0DEC8"/>
			<stop  offset="0.3615" style="stop-color:#F9E8D3"/>
			<stop  offset="0.4531" style="stop-color:#FCEBD6"/>
			<stop  offset="0.549" style="stop-color:#F9E8D3"/>
			<stop  offset="0.6304" style="stop-color:#EFDDC9"/>
			<stop  offset="0.7065" style="stop-color:#DDCCB8"/>
			<stop  offset="0.7793" style="stop-color:#C5B3A0"/>
			<stop  offset="0.85" style="stop-color:#A69381"/>
			<stop  offset="0.9188" style="stop-color:#806C5B"/>
			<stop  offset="0.9851" style="stop-color:#543E2F"/>
			<stop  offset="1" style="stop-color:#493324"/>
		</linearGradient>
		<path class="st4" d="M332.56,69.24V399.2c0,15.51-12.57,28.09-28.09,28.09H173.79c-15.51,0-28.09-12.58-28.09-28.09V69.24
			c0-15.51,12.58-28.09,28.09-28.09h130.68C319.99,41.15,332.56,53.72,332.56,69.24z"/>
		<linearGradient id="SVGID_6_" gradientUnits="userSpaceOnUse" x1="148.0722" y1="234.2147" x2="330.1992" y2="234.2147">
			<stop  offset="0" style="stop-color:#FFFFFF"/>
			<stop  offset="0.3079" style="stop-color:#FCFCFC"/>
			<stop  offset="0.5669" style="stop-color:#F1F1F1"/>
			<stop  offset="0.8072" style="stop-color:#E0E0E0"/>
			<stop  offset="1" style="stop-color:#CCCCCC"/>
		</linearGradient>
		<path class="st5" d="M173.79,424.92c-14.18,0-25.72-11.54-25.72-25.72V69.24c0-14.18,11.54-25.72,25.72-25.72h130.68
			c14.18,0,25.72,11.54,25.72,25.72v329.96c0,14.18-11.54,25.72-25.72,25.72H173.79z"/>
		<path class="st6" d="M173.79,424.13c-13.75,0-24.93-11.19-24.93-24.93V69.24c0-13.75,11.19-24.93,24.93-24.93h130.68
			c13.75,0,24.93,11.19,24.93,24.93v329.96c0,13.75-11.19,24.93-24.93,24.93H173.79z"/>
		<linearGradient id="SVGID_7_" gradientUnits="userSpaceOnUse" x1="239.1357" y1="383.5236" x2="239.1357" y2="86.6083">
			<stop  offset="0" style="stop-color:#000000"/>
			<stop  offset="0.36" style="stop-color:#191919"/>
			<stop  offset="1" style="stop-color:#4D4D4D"/>
		</linearGradient>
		<path class="st7" d="M321.72,380.54H156.56c-0.33,0-0.6-0.27-0.6-0.6V87.44c0-0.33,0.27-0.6,0.6-0.6h165.16
			c0.33,0,0.6,0.27,0.6,0.6v292.5C322.32,380.27,322.05,380.54,321.72,380.54z"/>
		<g>
			<linearGradient id="SVGID_8_" gradientUnits="userSpaceOnUse" x1="249.7436" y1="412.8269" x2="227.8045" y2="390.8878">
				<stop  offset="0" style="stop-color:#856B4F"/>
				<stop  offset="0.0137" style="stop-color:#8D7458"/>
				<stop  offset="0.0775" style="stop-color:#AF987F"/>
				<stop  offset="0.1439" style="stop-color:#CBB69E"/>
				<stop  offset="0.2125" style="stop-color:#E1CDB7"/>
				<stop  offset="0.2844" style="stop-color:#F0DEC8"/>
				<stop  offset="0.3615" style="stop-color:#F9E8D3"/>
				<stop  offset="0.4531" style="stop-color:#FCEBD6"/>
				<stop  offset="0.5695" style="stop-color:#CBB9A5"/>
				<stop  offset="0.7162" style="stop-color:#94806E"/>
				<stop  offset="0.8421" style="stop-color:#6B5646"/>
				<stop  offset="0.9408" style="stop-color:#523C2D"/>
				<stop  offset="1" style="stop-color:#493324"/>
			</linearGradient>
			<circle class="st8" cx="239.14" cy="402.22" r="15.11"/>
			
				<ellipse transform="matrix(0.7071 -0.7071 0.7071 0.7071 -214.3706 286.9017)" class="st6" cx="239.14" cy="402.22" rx="12.88" ry="12.88"/>
			<linearGradient id="SVGID_9_" gradientUnits="userSpaceOnUse" x1="230.3768" y1="393.4601" x2="247.6878" y2="410.7711">
				<stop  offset="0" style="stop-color:#FFFFFF"/>
				<stop  offset="0.3079" style="stop-color:#FCFCFC"/>
				<stop  offset="0.5669" style="stop-color:#F1F1F1"/>
				<stop  offset="0.8072" style="stop-color:#E0E0E0"/>
				<stop  offset="1" style="stop-color:#CCCCCC"/>
			</linearGradient>
			<circle class="st9" cx="239.14" cy="402.22" r="12.09"/>
		</g>
		<linearGradient id="SVGID_10_" gradientUnits="userSpaceOnUse" x1="239.1357" y1="64.7538" x2="239.1357" y2="67.4148">
			<stop  offset="0.1296" style="stop-color:#000000"/>
			<stop  offset="0.3019" style="stop-color:#060606"/>
			<stop  offset="0.5394" style="stop-color:#181818"/>
			<stop  offset="0.8137" style="stop-color:#353535"/>
			<stop  offset="1" style="stop-color:#4D4D4D"/>
		</linearGradient>
		<path class="st10" d="M252.69,67.32h-27.1c-0.73,0-1.33-0.6-1.33-1.33l0,0c0-0.73,0.6-1.33,1.33-1.33h27.1
			c0.73,0,1.33,0.6,1.33,1.33l0,0C254.02,66.72,253.42,67.32,252.69,67.32z"/>
		<linearGradient id="SVGID_11_" gradientUnits="userSpaceOnUse" x1="237.5428" y1="51.7609" x2="240.7093" y2="54.9273">
			<stop  offset="0" style="stop-color:#000000"/>
			<stop  offset="1" style="stop-color:#4D4D4D"/>
		</linearGradient>
		<path class="st11" d="M241.34,53.35c0,1.22-0.99,2.2-2.2,2.2c-1.22,0-2.2-0.99-2.2-2.2c0-1.22,0.99-2.2,2.2-2.2
			C240.35,51.15,241.34,52.14,241.34,53.35z"/>
		<linearGradient id="SVGID_12_" gradientUnits="userSpaceOnUse" x1="237.9866" y1="52.2046" x2="240.3838" y2="54.6018">
			<stop  offset="0" style="stop-color:#4D4D4D"/>
			<stop  offset="0.2049" style="stop-color:#363636"/>
			<stop  offset="0.526" style="stop-color:#191919"/>
			<stop  offset="0.8023" style="stop-color:#060606"/>
			<stop  offset="1" style="stop-color:#000000"/>
		</linearGradient>
		<path class="st12" d="M240.76,53.35c0,0.9-0.73,1.63-1.63,1.63c-0.9,0-1.63-0.73-1.63-1.63c0-0.9,0.73-1.63,1.63-1.63
			C240.03,51.73,240.76,52.46,240.76,53.35z"/>
		<g>
			<path d="M211.3,65.99c0,0.98-0.8,1.78-1.78,1.78c-0.98,0-1.78-0.8-1.78-1.78s0.8-1.78,1.78-1.78
				C210.51,64.21,211.3,65,211.3,65.99z"/>
			<linearGradient id="SVGID_13_" gradientUnits="userSpaceOnUse" x1="211.9016" y1="68.3594" x2="207.3998" y2="63.8576">
				<stop  offset="0" style="stop-color:#4D4D4D"/>
				<stop  offset="1" style="stop-color:#000000"/>
			</linearGradient>
			<path class="st13" d="M212.55,65.99c0,1.67-1.35,3.02-3.02,3.02c-1.67,0-3.02-1.35-3.02-3.02c0-1.67,1.35-3.02,3.02-3.02
				C211.2,62.96,212.55,64.32,212.55,65.99z"/>
			<linearGradient id="SVGID_14_" gradientUnits="userSpaceOnUse" x1="211.1663" y1="67.6241" x2="208.0591" y2="64.5169">
				<stop  offset="0" style="stop-color:#000000"/>
				<stop  offset="1" style="stop-color:#4D4D4D"/>
			</linearGradient>
			<path class="st14" d="M211.61,65.99c0,1.15-0.93,2.09-2.09,2.09c-1.15,0-2.09-0.93-2.09-2.09s0.93-2.09,2.09-2.09
				C210.68,63.9,211.61,64.83,211.61,65.99z"/>
		</g>
	</g>
	<g>
		<rect x="155.95" y="85.48" class="st15" width="166.37" height="295.05"/>
		<path class="st16" d="M171.12,99.83c0.8-2.03,2.79-3.47,5.1-3.47c3.03,0,5.49,2.46,5.49,5.49c0,3.03-2.46,5.49-5.49,5.49
			c-1.62,0-3.08-0.71-4.09-1.83"/>
		<polyline class="st16" points="176.41,98.7 176.41,101.85 174.79,103.49 		"/>
		<polyline class="st16" points="171.12,97.03 171.12,99.83 173.77,99.82 		"/>
		<g>
			<text transform="matrix(1.001 0 0 1 210.8872 104.7536)" class="st17 st18 st19">FLOGRAM       </text>
		</g>
		<g>
			<text transform="matrix(1.001 0 0 1 171.1172 178.9958)" class="st17 st18 st19">Influencer finder</text>
		</g>
		<g>
			<text transform="matrix(1.001 0 0 1 170.0625 225.6423)" class="st17 st18 st20">Story highlights</text>
		</g>
		<polyline class="st16" points="256.54,100.69 258.96,103.09 261.37,100.69 		"/>
		<line class="st16" x1="298.55" y1="98.43" x2="307.77" y2="98.43"/>
		<line class="st16" x1="298.55" y1="101.89" x2="307.77" y2="101.89"/>
		<line class="st16" x1="298.55" y1="105.73" x2="307.77" y2="105.73"/>
		<circle class="st21" cx="190.21" cy="142.89" r="20.68"/>
		<circle class="st22" cx="190.21" cy="142.89" r="22.93"/>
		<path class="st22" d="M310.41,159.93h-87.2c-1.07,0-1.94-0.87-1.94-1.94v-9.24c0-1.07,0.87-1.94,1.94-1.94h87.2
			c1.07,0,1.94,0.87,1.94,1.94v9.24C312.34,159.06,311.48,159.93,310.41,159.93z"/>
		<text transform="matrix(1.001 0 0 1 250.9678 155.6609)" class="st17 st18 st23">Edit profile</text>
		<text transform="matrix(1.001 0 0 1 178.0137 274.4724)" class="st17 st18 st24">New</text>
		<text transform="matrix(1.001 0 0 1 217.8247 274.4724)" class="st17 st18 st24">One</text>
		<text transform="matrix(1.001 0 0 1 256.7744 274.4724)" class="st17 st18 st24">Two</text>
		<text transform="matrix(1.001 0 0 1 171.1172 187.6882)" class="st17 st18 st23">Promoting you account with the lowest price</text>
		<text transform="matrix(1.001 0 0 1 227.1718 141.06)" class="st25 st18 st26"> posts</text>
		<text transform="matrix(1.001 0 0 1 256.4277 141.0603)" class="st25 st18 st26">followers</text>
		<text transform="matrix(1.001 0 0 1 288.0225 141.0603)" class="st25 st18 st26">following</text>
		<text transform="matrix(1.001 0 0 1 226.2423 133.5134)" class="st17 st18 st19">100 </text>
		<text transform="matrix(1.001 0 0 1 259.7744 133.5134)" class="st17 st18 st19">1m </text>
		<text transform="matrix(1.001 0 0 1 294.9753 133.5132)" class="st17 st18 st19"> 0 </text>
		<circle class="st22" cx="185.07" cy="251.73" r="15.02"/>
		<circle class="st22" cx="224.43" cy="251.73" r="15.02"/>
		<circle class="st21" cx="224.43" cy="251.73" r="13.2"/>
		<circle class="st22" cx="263.79" cy="251.73" r="15.02"/>
		<circle class="st21" cx="263.79" cy="251.73" r="13.2"/>
		<line class="st27" x1="185.07" y1="247.41" x2="185.07" y2="256.26"/>
		<line class="st27" x1="180.86" y1="251.73" x2="189.71" y2="251.73"/>
		<rect x="176.91" y="285.36" class="st28" width="3.44" height="3.44"/>
		<rect x="180.35" y="285.36" class="st28" width="3.44" height="3.44"/>
		<rect x="183.79" y="285.36" class="st28" width="3.44" height="3.44"/>
		<rect x="176.91" y="288.8" class="st28" width="3.44" height="3.44"/>
		<rect x="180.35" y="288.8" class="st28" width="3.44" height="3.44"/>
		<rect x="183.79" y="288.8" class="st28" width="3.44" height="3.44"/>
		<rect x="176.91" y="292.25" class="st28" width="3.44" height="3.44"/>
		<rect x="180.35" y="292.25" class="st28" width="3.44" height="3.44"/>
		<rect x="183.79" y="292.25" class="st28" width="3.44" height="3.44"/>
		<rect x="216.39" y="286.81" class="st28" width="7.57" height="7.57"/>
		<line class="st28" x1="216.16" y1="285.1" x2="223.96" y2="285.1"/>
		<line class="st28" x1="216.27" y1="295.83" x2="224.07" y2="295.83"/>
		<path class="st29" d="M264.18,290.43c0,2.88-2.34,5.22-5.22,5.22c-2.88,0-5.22-2.34-5.22-5.22c0-2.88,2.34-5.22,5.22-5.22
			C261.84,285.21,264.18,287.54,264.18,290.43z"/>
		<polygon class="st28" points="260.61,292.98 258.84,291.93 256.97,292.8 257.42,290.8 256.02,289.29 258.06,289.09 259.06,287.3 
			259.88,289.18 261.9,289.57 260.36,290.94 		"/>
		<circle class="st28" cx="297.47" cy="290.26" r="1.95"/>
		<path class="st28" d="M294.1,295.79c0,0-0.16-2.4,3.38-2.4c3.54,0,3.42,2.4,3.42,2.4"/>
		<path class="st28" d="M301.73,286.43h-3.13l-1.11-1.14l-1.04,1.14h-3.32c-0.44,0-0.79,0.35-0.79,0.79V295
			c0,0.44,0.35,0.79,0.79,0.79h8.59c0.44,0,0.79-0.35,0.79-0.79v-7.78C302.52,286.79,302.17,286.43,301.73,286.43z"/>
		<rect x="162.2" y="301.14" class="st21" width="50.86" height="50.86"/>
		<rect x="213.7" y="301.14" class="st21" width="50.86" height="50.86"/>
		<rect x="265.21" y="301.14" class="st21" width="50.86" height="50.86"/>
		<g>
			<line class="st30" x1="156.11" y1="110.34" x2="322.09" y2="110.34"/>
			<line class="st30" x1="156.11" y1="357.88" x2="322.09" y2="357.88"/>
			<line class="st30" x1="155.95" y1="279.04" x2="322.32" y2="279.04"/>
		</g>
		<g>
			<g>
				<path class="st17" d="M277.15,364.54c-0.55-0.55-1.27-0.85-2.05-0.85c-0.77,0-1.5,0.3-2.05,0.85l-0.29,0.29l-0.29-0.29
					c-0.55-0.55-1.28-0.85-2.05-0.85c-0.77,0-1.5,0.3-2.04,0.85c-0.55,0.55-0.85,1.27-0.85,2.05c0,0.77,0.3,1.5,0.85,2.04l4.16,4.16
					c0.06,0.06,0.14,0.09,0.21,0.09c0.08,0,0.15-0.03,0.21-0.09l4.17-4.15c0.55-0.55,0.85-1.27,0.85-2.05
					C278,365.81,277.7,365.09,277.15,364.54z M276.73,368.21l-3.96,3.94l-3.95-3.95c-0.43-0.43-0.67-1.01-0.67-1.62
					c0-0.61,0.24-1.19,0.67-1.62c0.43-0.43,1.01-0.67,1.62-0.67c0.61,0,1.19,0.24,1.63,0.67l0.5,0.5c0.12,0.12,0.31,0.12,0.42,0
					l0.5-0.5c0.43-0.43,1.01-0.67,1.62-0.67c0.61,0,1.19,0.24,1.62,0.67c0.43,0.43,0.67,1.01,0.67,1.62
					C277.4,367.2,277.16,367.78,276.73,368.21z"/>
			</g>
			<g>
				<g>
					<g>
						<path class="st17" d="M238.95,370.23c-0.13,0-0.24-0.11-0.24-0.24v-5.12c0-0.13,0.11-0.24,0.24-0.24s0.24,0.11,0.24,0.24v5.12
							C239.19,370.12,239.09,370.23,238.95,370.23z"/>
					</g>
					<g>
						<path class="st17" d="M241.52,367.67h-5.13c-0.13,0-0.24-0.11-0.24-0.24c0-0.13,0.11-0.24,0.24-0.24h5.13
							c0.13,0,0.24,0.11,0.24,0.24C241.76,367.56,241.65,367.67,241.52,367.67z"/>
					</g>
				</g>
				<g>
					<path class="st17" d="M241.64,372.72h-5.09c-1.37,0-2.48-1.11-2.48-2.48v-5.38c0-1.37,1.11-2.48,2.48-2.48h5.09
						c1.37,0,2.48,1.11,2.48,2.48v5.38C244.13,371.61,243.01,372.72,241.64,372.72z M236.56,362.76c-1.16,0-2.1,0.94-2.1,2.1v5.38
						c0,1.16,0.94,2.1,2.1,2.1h5.09c1.16,0,2.1-0.94,2.1-2.1v-5.38c0-1.16-0.94-2.1-2.1-2.1H236.56z"/>
				</g>
			</g>
			<path class="st31" d="M164.35,372.63v-5.45l4.6-4.64l4.79,4.74v5.36h-3.17l-0.05-2.97l0,0c-0.33-1.83-3.02-1.59-3.18,0.08l0,0
				v2.89H164.35z"/>
			<g>
				<g>
					<path class="st17" d="M201.21,371.11c-2.5,0-4.53-2.03-4.53-4.53c0-2.5,2.03-4.53,4.53-4.53c2.5,0,4.53,2.03,4.53,4.53
						C205.74,369.08,203.71,371.11,201.21,371.11z M201.21,362.82c-2.08,0-3.77,1.69-3.77,3.77c0,2.08,1.69,3.77,3.77,3.77
						c2.08,0,3.77-1.69,3.77-3.77C204.98,364.51,203.29,362.82,201.21,362.82z"/>
				</g>
				<g>
					<path class="st17" d="M207.07,372.86c-0.1,0-0.2-0.04-0.27-0.12l-2.9-2.99c-0.15-0.15-0.14-0.39,0.01-0.54
						c0.15-0.15,0.39-0.14,0.54,0.01l2.9,2.99c0.15,0.15,0.14,0.39-0.01,0.54C207.26,372.83,207.17,372.86,207.07,372.86z"/>
				</g>
			</g>
			<g>
				<g>
					<path class="st17" d="M306.44,368.31c-1.85,0-3.25,0.5-4.18,1.5c-1.23,1.32-1.13,3.02-1.12,3.09c1.79,0,7.72,0.07,10.9-0.03
						C312.04,372.82,311.98,368.31,306.44,368.31z"/>
					<path class="st17" d="M306.59,368.04c1.36,0,2.47-1.11,2.47-2.47c0-1.36-1.11-2.47-2.47-2.47c-1.36,0-2.47,1.11-2.47,2.47
						C304.12,366.93,305.23,368.04,306.59,368.04z"/>
				</g>
			</g>
		</g>
		<g>
			<path d="M159.94,89.56h-0.25c-0.3,0-0.54,0.24-0.54,0.54v1.1c0,0.3,0.24,0.54,0.54,0.54h0.25c0.3,0,0.54-0.24,0.54-0.54v-1.1
				C160.47,89.8,160.23,89.56,159.94,89.56z"/>
			<path d="M162.15,88.96h-0.55c-0.21,0-0.39,0.17-0.39,0.39v2c0,0.21,0.17,0.39,0.39,0.39h0.55c0.21,0,0.39-0.17,0.39-0.39v-2
				C162.54,89.13,162.36,88.96,162.15,88.96z"/>
			<path d="M164.1,88.13h-0.46c-0.24,0-0.43,0.19-0.43,0.43v2.74c0,0.24,0.19,0.43,0.43,0.43h0.46c0.24,0,0.43-0.19,0.43-0.43v-2.74
				C164.53,88.32,164.34,88.13,164.1,88.13z"/>
			<path class="st32" d="M166.08,87.21h-0.36c-0.27,0-0.49,0.22-0.49,0.49v3.56c0,0.27,0.22,0.49,0.49,0.49h0.36
				c0.27,0,0.49-0.22,0.49-0.49v-3.56C166.57,87.43,166.35,87.21,166.08,87.21z"/>
		</g>
		<g>
			<path class="st33" d="M316.83,91.88h-8.15c-0.59,0-1.06-0.48-1.06-1.06v-2.67c0-0.59,0.48-1.06,1.06-1.06h8.15
				c0.59,0,1.06,0.48,1.06,1.06v2.67C317.89,91.4,317.42,91.88,316.83,91.88z"/>
			<path d="M316.48,91.12h-7.45c-0.38,0-0.69-0.31-0.69-0.69v-1.91c0-0.38,0.31-0.69,0.69-0.69h7.45c0.38,0,0.69,0.31,0.69,0.69
				v1.91C317.16,90.81,316.86,91.12,316.48,91.12z"/>
			<path class="st34" d="M318.52,88.65v1.83c0,0,0.6-0.41,0.6-1.01C319.13,88.88,318.52,88.65,318.52,88.65z"/>
		</g>
		<g>
			<path d="M285.06,88.35l0.93-0.88c0,0-0.55,0-0.74,0.17C285.06,87.8,285.06,88.35,285.06,88.35z"/>
			<path d="M289.27,88.35l-0.93-0.88c0,0,0.55,0,0.74,0.17C289.27,87.8,289.27,88.35,289.27,88.35z"/>
			<path d="M288.91,89.63c0,0.98-0.8,1.78-1.78,1.78c-0.98,0-1.78-0.8-1.78-1.78c0-0.98,0.8-1.78,1.78-1.78
				C288.11,87.85,288.91,88.64,288.91,89.63z"/>
			<path class="st35" d="M287.37,89.86h-0.22c-0.06,0-0.11-0.05-0.11-0.11v-1.28c0-0.06,0.05-0.11,0.11-0.11h0.22
				c0.06,0,0.11,0.05,0.11,0.11v1.28C287.48,89.8,287.43,89.86,287.37,89.86z"/>
			<path class="st35" d="M287.35,89.86h-0.86c-0.07,0-0.14-0.06-0.14-0.14v-0.17c0-0.07,0.06-0.14,0.14-0.14h0.86
				c0.07,0,0.14,0.06,0.14,0.14v0.17C287.48,89.79,287.42,89.86,287.35,89.86z"/>
		</g>
		<text transform="matrix(1.001 0 0 1 229.7351 91.3114)" class="st18 st36">3:00 PM</text>
		<text transform="matrix(1.001 0 0 1 292.7503 91.3114)" class="st18 st36">100%</text>
	</g>
</g>
</svg>
